<svg xmlns="http://www.w3.org/2000/svg" width="1787.939" height="662.997" viewBox="0 0 1787.939 662.997">
  <g id="Group_5559" data-name="Group 5559" transform="translate(1894.749 -2744)">
    <g id="Group_5558" data-name="Group 5558">
      <g id="Group_5553" data-name="Group 5553">
        <g id="Group_5557" data-name="Group 5557">
          <path id="Path_15752" data-name="Path 15752" d="M-154.953,356.268c61.376-70.487,182.582,20.7,358.2-19.207,152.109-34.582,160.86-126.439,282.392-121.884,88.789,3.31,185.541,54.578,238.714,143.895C783,457.551,761.68,557.81,755.7,582.139c-26.713,109.124-106,166.687-133.968,186.348-115.24,80.953-244.555,66.767-306.592,59.992C82.1,802.957-167.386,636.583-178.495,455.7-179.971,432.021-182.658,388.1-154.953,356.268Z" transform="translate(-1715.412 2528.986)" fill="#e6f3ff" opacity="0.05"/>
          <path id="Path_15753" data-name="Path 15753" d="M-163.266,308.111c40.451-46.456,120.335,13.644,236.082-12.659,100.251-22.792,106.019-83.333,186.117-80.331,58.519,2.182,122.285,35.971,157.33,94.837,38.649,64.9,24.6,130.983,20.655,147.018-17.606,71.921-69.861,109.859-88.295,122.817-75.952,53.354-161.18,44-202.067,39.539C-7.031,602.512-171.46,492.859-178.782,373.644-179.755,358.038-181.526,329.089-163.266,308.111Z" transform="matrix(-0.966, 0.259, -0.259, -0.966, -224.385, 3500.115)" fill="#e6f3ff" opacity="0.05"/>
        </g>
      </g>
      <g id="Ellipse_79" data-name="Ellipse 79" transform="translate(-935 3214.461)" fill="#fff" stroke="#707070" stroke-width="1">
        <ellipse cx="0.5" cy="2" rx="0.5" ry="2" stroke="none"/>
        <ellipse cx="0.5" cy="2" ry="1.5" fill="none"/>
      </g>
    </g>
  </g>
</svg>
