<svg xmlns="http://www.w3.org/2000/svg" width="302.443" height="227.936" viewBox="0 0 302.443 227.936">
  <g id="Group_5568" data-name="Group 5568" transform="translate(-36.278 -119.221)">
    <g id="Group_5567" data-name="Group 5567">
      <g id="Group_5566" data-name="Group 5566">
        <g id="Group_5565" data-name="Group 5565">
          <g id="Group_5564" data-name="Group 5564">
            <g id="Group_5563" data-name="Group 5563">
              <g id="Group_5562" data-name="Group 5562">
                <g id="Group_5561" data-name="Group 5561">
                  <g id="Group_5560" data-name="Group 5560">
                    <g id="Group_5559" data-name="Group 5559">
                      <g id="Group_5558" data-name="Group 5558">
                        <g id="Group_5557" data-name="Group 5557">
                          <g id="Group_5556" data-name="Group 5556">
                            <g id="Group_5555" data-name="Group 5555">
                              <g id="Group_5554" data-name="Group 5554">
                                <g id="Group_5553" data-name="Group 5553">
                                  <g id="Group_5552" data-name="Group 5552">
                                    <g id="Group_5551" data-name="Group 5551">
                                      <g id="Group_5550" data-name="Group 5550">
                                        <g id="Group_5549" data-name="Group 5549">
                                          <g id="Group_5548" data-name="Group 5548">
                                            <g id="Group_5547" data-name="Group 5547">
                                              <g id="Group_5546" data-name="Group 5546">
                                                <g id="Group_5545" data-name="Group 5545">
                                                  <g id="Group_5544" data-name="Group 5544">
                                                    <g id="Group_5543" data-name="Group 5543">
                                                      <g id="Group_5542" data-name="Group 5542">
                                                        <g id="Group_5541" data-name="Group 5541">
                                                          <g id="Group_5540" data-name="Group 5540">
                                                            <g id="Group_5539" data-name="Group 5539">
                                                              <g id="doctor_two_color" transform="translate(15.387 94.806)">
                                                                <rect id="Rectangle_1933" data-name="Rectangle 1933" width="66.254" height="82.58" transform="translate(154.963 24.415)" fill="#e6f3ff"/>
                                                                <ellipse id="Ellipse_39" data-name="Ellipse 39" cx="136.174" cy="16.468" rx="136.174" ry="16.468" transform="translate(50.986 219.415)" fill="#e6f3ff" opacity="0.45"/>
                                                                <rect id="Rectangle_1937" data-name="Rectangle 1937" width="196.753" height="98.105" transform="translate(88.619 136.23)" fill="#e6f3ff"/>
                                                                <rect id="Rectangle_1938" data-name="Rectangle 1938" width="196.753" height="12.9" transform="translate(88.619 136.23)" fill="#1894ff"/>
                                                                <path id="Path_14183" data-name="Path 14183" d="M279.529,133.977s-9.715-2.607-11.859-11.628c0,0,15.009-3.1,15.507,12.456Z" transform="translate(-34.496 -9.989)" fill="#00de9a" opacity="0.58"/>
                                                                <path id="Path_14184" data-name="Path 14184" d="M281.879,131.791s-6.824-10.676-.89-20.721c0,0,11.45,7.206,6.432,20.721Z" transform="translate(-35.698 -8.772)" fill="#00de9a" opacity="0.73"/>
                                                                <path id="Path_14185" data-name="Path 14185" d="M284.25,132.684s3.559-11.326,14.342-13.514c0,0,2.055,7.34-6.948,13.514Z" transform="translate(-36.325 -9.666)" fill="#00de9a"/>
                                                                <path id="Path_14186" data-name="Path 14186" d="M276.34,134.11l2.029,13.434h12.375l1.77-13.434Z" transform="translate(-35.452 -11.314)" fill="#2361b5"/>
                                                                <circle id="Ellipse_40" data-name="Ellipse 40" cx="4.181" cy="4.181" r="4.181" transform="translate(168.317 35.029)" fill="#c2e3ff"/>
                                                                <path id="Path_14193" data-name="Path 14193" d="M206.239,50.442c-.543-3.043-7.785-2.811-8.167-2.8s-7.616-.24-8.158,2.8c-.454,2.536-2.144,12.731-2.767,16.5a1.521,1.521,0,0,0,1.157,1.779h0a1.53,1.53,0,0,0,1.833-1.157l3-13.407.56,14.9-.516,22.011a1.779,1.779,0,0,0,1.566,1.779h0a1.779,1.779,0,0,0,1.993-1.655l.943-15.125a.391.391,0,0,1,.783,0l.952,15.125a1.779,1.779,0,0,0,1.993,1.655h0a1.779,1.779,0,0,0,1.566-1.779l-.516-22.011.569-14.947,2.98,13.416a1.53,1.53,0,0,0,1.833,1.157h0a1.53,1.53,0,0,0,1.165-1.779C208.365,63.173,206.684,52.977,206.239,50.442Z" transform="translate(-25.609 -1.774)" fill="#c2e3ff"/>
                                                                <rect id="Rectangle_1939" data-name="Rectangle 1939" width="23.799" height="19.235" rx="5" transform="translate(189.66 33.783)" fill="#00de9a"/>
                                                                <rect id="Rectangle_1940" data-name="Rectangle 1940" width="23.799" height="3.915" transform="translate(189.66 59.922)" fill="#1894ff" opacity="0.16"/>
                                                                <rect id="Rectangle_1941" data-name="Rectangle 1941" width="23.799" height="3.915" transform="translate(189.66 67.582)" fill="#1894ff" opacity="0.16"/>
                                                                <rect id="Rectangle_1942" data-name="Rectangle 1942" width="23.799" height="3.915" transform="translate(189.66 76.15)" fill="#1894ff" opacity="0.16"/>
                                                                <circle id="Ellipse_41" data-name="Ellipse 41" cx="5.107" cy="5.107" r="5.107" transform="translate(206.101 90.865)" fill="#1894ff"/>
                                                                <path id="Path_14178" data-name="Path 14178" d="M204,151.141s5.338,26.69-15.125,36.183-22.02,34.591-6.6,60H112.51l4.262-75.124L157.7,149.21l35.587.445Z" transform="translate(-17.378 -12.98)" fill="#2361b5" opacity="0.08"/>
                                                                <g id="doctor_two_color-2" data-name="doctor_two_color" transform="translate(20.891 39.458)">
                                                                  <path id="Path_14176" data-name="Path 14176" d="M87.813,64.25S52.82,69.175,50.3,108.461l24.174,5.746Z" transform="translate(-49.556 -28.969)" fill="#1894ff"/>
                                                                  <path id="Path_14177" data-name="Path 14177" d="M37.811,0S2.54,5.016,0,45.03l24.366,5.852Z" transform="matrix(1, 0.017, -0.017, 1, 0.888, 34.558)" fill="#e6f3ff"/>
                                                                  <path id="Path_14179" data-name="Path 14179" d="M52.3,118.73s-10.737,39.9,13.61,39.975l8-20.521-4.014-15.251Z" transform="translate(-49.491 -38.73)" fill="#f4a28c"/>
                                                                  <path id="Path_14180" data-name="Path 14180" d="M52.3,118.73s-10.737,39.9,13.61,39.975l8-20.521-4.014-15.251Z" transform="translate(-49.491 -38.73)" fill="#ce8172" opacity="0.31"/>
                                                                  <path id="Path_14181" data-name="Path 14181" d="M105.223,255.14s-1.272,3.579-4.5,3.858-4.1,3.448-1.157,4.26,10.376-2.947,10.376-2.947l-.222-4.654Z" transform="translate(-58.061 -63.168)" fill="#2361b5"/>
                                                                  <path id="Path_14182" data-name="Path 14182" d="M163.428,254.47s1.272,3.579,4.5,3.866,4.063,3.439,1.157,4.252S158.7,259.65,158.7,259.65l.23-4.662Z" transform="translate(-68.977 -63.048)" fill="#2361b5"/>
                                                                  <path id="Path_14187" data-name="Path 14187" d="M132.412,36.325l-2.028-1.995h0c-.345-2.134-.763-3.743-.763-3.743-.739-3.62-6.427-5.377-9.39-2.389a5.426,5.426,0,0,0-1.42,6.132l2.66,4.925a6.7,6.7,0,0,0,6.009,4.1,3.037,3.037,0,0,0,3.283-2.774,16.97,16.97,0,0,0,0-2.151l1.264-.468a.969.969,0,0,0,.386-1.642Z" transform="translate(-61.757 -22.239)" fill="#f4a28c"/>
                                                                  <path id="Path_14188" data-name="Path 14188" d="M118.95,38.68,117.3,58.438l10.95.131L125.131,44.5Z" transform="translate(-61.56 -24.389)" fill="#f4a28c"/>
                                                                  <path id="Path_14189" data-name="Path 14189" d="M114.71,30.785c2.044,1.034,2.331,3.562,2.865,5.746l.648,2.717a4.1,4.1,0,0,0,4.621-2.463,4.86,4.86,0,0,0,.271-3.283,1.748,1.748,0,0,1,1.535-2.233l.9-.09a7.815,7.815,0,0,0,3.283-1.19h0l-.32-4.268" transform="translate(-61.096 -22.067)"/>
                                                                  <path id="Path_14190" data-name="Path 14190" d="M124.685,38.529s-.427-2.29-2.126-1.822-1.092,3.776,1.305,3.694Z" transform="translate(-62.329 -24.024)" fill="#f4a28c"/>
                                                                  <path id="Path_14191" data-name="Path 14191" d="M126.217,45.877a7.388,7.388,0,0,1-3.546-1.757s-.763,4.277,4.441,5.746Z" transform="translate(-62.515 -25.363)" fill="#ce8172" opacity="0.31"/>
                                                                  <path id="Path_14192" data-name="Path 14192" d="M93.7,63.141s28.368-8.52,57.279,3.505-15.013,89.325-15.013,89.325H91.675S50.616,71.842,93.7,63.141Z" transform="translate(-53.805 -28.246)" fill="#e6f3ff"/>
                                                                  <path id="Path_14194" data-name="Path 14194" d="M128.655,38.365h5.122l-2.167,7.264L122.77,40.7v-.648l2.742,1.453a1.051,1.051,0,0,0,1.551-.952h0A2.75,2.75,0,0,0,125.5,38.2l-.821-.41-.689-.87,1.732.821A7.191,7.191,0,0,0,128.655,38.365Z" transform="translate(-62.54 -24.073)" fill="#1894ff"/>
                                                                  <path id="Path_14195" data-name="Path 14195" d="M99.437,87.3h10.515l5.015,30.634h-13.61s-5.68,25.225,13.954,42.889H92.157s-12.116-29.444-14.389-39.942L76.7,98.135Z" transform="translate(-54.286 -33.099)" fill="#2361b5" opacity="0.08"/>
                                                                  <path id="Path_14196" data-name="Path 14196" d="M117.48,60.423l5.327,9.85,4.991-10.1a24.683,24.683,0,0,0-10.318.246Z" transform="translate(-61.592 -28.163)" fill="#f4a28c"/>
                                                                  <path id="Path_14197" data-name="Path 14197" d="M70.46,77.82H96.407L100.24,107.9H74.663Z" transform="translate(-53.168 -31.401)" fill="#1894ff"/>
                                                                  <path id="Path_14198" data-name="Path 14198" d="M80.085,98.7a7.913,7.913,0,0,1,6.214,5.746c1.576,5.229,14.71,2.208,14.71,2.208l.632,4.983-23.5-.074Z" transform="translate(-54.544 -35.141)" opacity="0.08"/>
                                                                  <path id="Path_14199" data-name="Path 14199" d="M79.42,75.05l1.149,4.539h9.5L89.2,75.05Z" transform="translate(-54.773 -30.904)" fill="#2361b5"/>
                                                                  <path id="Path_14200" data-name="Path 14200" d="M72.941,107.934s-3.965-7.634,1.83-10.384,7.051,7.568,2.175,13.725Z" transform="translate(-53.376 -34.854)" fill="#f4a28c"/>
                                                                  <path id="Path_14201" data-name="Path 14201" d="M116.932,35.774s3.554-4.523,11.492-5.631c0,0,3.086-4.465-.886-7.609s-13.413.049-15.6,4.375C110.718,29.339,109.889,35.823,116.932,35.774Z" transform="translate(-60.453 -21.269)" fill="#2361b5"/>
                                                                  <path id="Path_14202" data-name="Path 14202" d="M70.749,108.42s-21.252,43.5-6.444,48.29,11.352-44.186,11.352-44.186Z" transform="translate(-51.126 -36.883)" fill="#f4a28c"/>
                                                                  <path id="Path_14203" data-name="Path 14203" d="M150.353,77.647c3.957-8.208,14.775-10.22,21.736-4.309,9.768,8.34,27.761,31.488,31.044,53.609,5.2,35.026-44.6,38.309-44.6,38.309l-1.642-7.658s32.67-8.208,23.312-31.192C172.721,108.018,143.646,91.552,150.353,77.647Z" transform="translate(-67.303 -29.988)" fill="#f4a28c"/>
                                                                  <path id="Path_14205" data-name="Path 14205" d="M149.605,74.7s8.619-10.531,19.569-4.244,25.274,29.419,25.274,29.419l-24.182,17.459S135.109,87.28,149.605,74.7Z" transform="translate(-66.719 -29.722)" fill="#1894ff"/>
                                                                  <path id="Path_14206" data-name="Path 14206" d="M149.72,74.9s8.9-10.878,20.212-4.383,26.1,30.387,26.1,30.387L171.06,118.939S134.747,87.9,149.72,74.9Z" transform="translate(-67.514 -30.526)" fill="#e6f3ff"/>
                                                                  <path id="Path_14208" data-name="Path 14208" d="M139.8,176.87H95.53l7.4,65.274h8.348l7.355-52.879,27.531,52.879h8.208Z" transform="translate(-57.659 -49.146)" fill="#e6f3ff"/>
                                                                  <path id="Path_14209" data-name="Path 14209" d="M156.138,176.73s-14.5,3.234-10.211,8.98,11.853-1.322,11.853-1.322Z" transform="translate(-66.546 -49.121)" fill="#f4a28c"/>
                                                                  <path id="Path_14210" data-name="Path 14210" d="M110.589,74.564c-.074-.484-1.642-11.91,5.746-15.284v1.051c-6.78,3.111-4.925,13.954-4.925,14.1Z" transform="translate(-60.324 -28.079)" fill="#1894ff"/>
                                                                  <path id="Path_14211" data-name="Path 14211" d="M134.371,84.47l-.821-.172c4.285-20.858-3.628-24.231-3.71-24.264v-.9C130.218,59.261,138.8,62.914,134.371,84.47Z" transform="translate(-63.806 -28.052)" fill="#1894ff"/>
                                                                  <path id="Path_14212" data-name="Path 14212" d="M138.42,101.841l-1.6-.394c0-.057,1.363-5.746-.681-8.57a3.669,3.669,0,0,0-2.889-1.494,3.842,3.842,0,0,0-3.119,1.026c-2.577,2.463-2.339,8.389-2.339,8.447l-1.642.074c0-.271-.271-6.673,2.832-9.694a5.5,5.5,0,0,1,4.433-1.494,5.311,5.311,0,0,1,4.1,2.167C139.98,95.332,138.478,101.571,138.42,101.841Z" transform="translate(-63.144 -33.53)" fill="#1894ff"/>
                                                                  <circle id="Ellipse_42" data-name="Ellipse 42" cx="1.543" cy="1.543" r="1.543" transform="translate(68.825 55.391)" fill="#2361b5"/>
                                                                  <circle id="Ellipse_43" data-name="Ellipse 43" cx="2.971" cy="2.971" r="2.971" transform="translate(47.852 43.957)" fill="#1894ff"/>
                                                                  <circle id="Ellipse_44" data-name="Ellipse 44" cx="1.691" cy="1.691" r="1.691" transform="translate(49.133 45.237)" fill="#2361b5"/>
                                                                  <path id="Path_14213" data-name="Path 14213" d="M129.538,111.169c-3.489-1.74-2.971-9.7-2.947-10.039l.821.057c0,.082-.509,7.749,2.463,9.251Z" transform="translate(-63.217 -35.577)" fill="#1894ff"/>
                                                                  <circle id="Ellipse_45" data-name="Ellipse 45" cx="1.379" cy="1.379" r="1.379" transform="translate(65.418 73.655)" fill="#2361b5"/>
                                                                  <path id="Path_14214" data-name="Path 14214" d="M135.623,111.1l-.263-.772c3.185-1.059,3.784-8.726,3.792-8.808l.821.066C139.94,101.914,139.325,109.876,135.623,111.1Z" transform="translate(-64.795 -35.647)" fill="#1894ff"/>
                                                                  <circle id="Ellipse_46" data-name="Ellipse 46" cx="1.379" cy="1.379" r="1.379" transform="translate(69.063 73.458)" fill="#2361b5"/>
                                                                </g>
                                                              </g>
                                                            </g>
                                                          </g>
                                                        </g>
                                                      </g>
                                                    </g>
                                                  </g>
                                                </g>
                                              </g>
                                            </g>
                                          </g>
                                        </g>
                                      </g>
                                    </g>
                                  </g>
                                </g>
                              </g>
                            </g>
                          </g>
                        </g>
                      </g>
                    </g>
                  </g>
                </g>
              </g>
            </g>
          </g>
        </g>
      </g>
    </g>
  </g>
</svg>
